<svg width="64" height="64" viewBox="0 0 64 64" fill="none" xmlns="http://www.w3.org/2000/svg">
  <defs>
    <linearGradient id="bgGrad" x1="0%" y1="0%" x2="100%" y2="100%">
      <stop offset="0%" style="stop-color:#5dbbef;stop-opacity:1" />
      <stop offset="50%" style="stop-color:#7c3aed;stop-opacity:1" />
      <stop offset="100%" style="stop-color:#ec4899;stop-opacity:1" />
    </linearGradient>
    <filter id="glow">
      <feGaussianBlur stdDeviation="2" result="coloredBlur"/>
      <feMerge>
        <feMergeNode in="coloredBlur"/>
        <feMergeNode in="SourceGraphic"/>
      </feMerge>
    </filter>
  </defs>
  
  <!-- Background -->
  <rect width="64" height="64" rx="16" fill="url(#bgGrad)"/>
  
  <!-- Cloud Shape -->
  <g filter="url(#glow)">
    <path d="M45 28c0-6.075-4.925-11-11-11-4.36 0-8.13 2.535-9.9 6.21A8.5 8.5 0 0015.5 31.5c0 4.694 3.806 8.5 8.5 8.5h20c4.142 0 7.5-3.358 7.5-7.5S48.142 28 44 28z" 
          fill="white" opacity="0.95"/>
    
    <!-- Download arrow -->
    <path d="M32 44V30M32 44l-5-5M32 44l5-5" 
          stroke="#5dbbef" stroke-width="3" stroke-linecap="round" stroke-linejoin="round"/>
    
    <!-- Slides lines -->
    <rect x="26" y="20" width="12" height="2" rx="1" fill="#7c3aed" opacity="0.7"/>
    <rect x="26" y="24" width="8" height="2" rx="1" fill="#ec4899" opacity="0.7"/>
  </g>
</svg>
